<svg width="16" height="18" viewBox="0 0 16 18" fill="none" xmlns="http://www.w3.org/2000/svg">
<path d="M10.449 13.4C10.1549 14.5293 9.45956 15.513 8.49299 16.1669C7.52641 16.8209 6.35475 17.1006 5.19701 16.9535C4.03927 16.8065 2.97469 16.2429 2.20227 15.368C1.42986 14.4932 1.00247 13.367 1 12.2C0.99971 11.2806 1.26342 10.3806 1.75979 9.60679C2.25615 8.83299 2.96429 8.21801 3.8 7.83496" stroke="#8491A5" stroke-width="1.5" stroke-linecap="round" stroke-linejoin="round"/>
<path d="M5.79999 4.19995L6.49499 10.458C6.52324 10.7124 6.64797 10.9462 6.84349 11.1114C7.03901 11.2766 7.29044 11.3606 7.54599 11.346L12.59 11.058C12.7221 11.0504 12.8544 11.0691 12.9791 11.1131C13.1039 11.157 13.2188 11.2253 13.317 11.3139C13.4152 11.4026 13.4949 11.5098 13.5513 11.6295C13.6078 11.7491 13.64 11.8788 13.646 12.011L13.756 14.445C13.7676 14.7023 13.878 14.9452 14.0643 15.1231C14.2506 15.3011 14.4984 15.4002 14.756 15.4H15" stroke="#8491A5" stroke-width="1.5" stroke-linecap="round" stroke-linejoin="round"/>
<path d="M8.75 7.4H11.75M7.2 2.6C7.2 3.02435 7.03143 3.43131 6.73137 3.73137C6.43131 4.03143 6.02435 4.2 5.6 4.2C5.17565 4.2 4.76869 4.03143 4.46863 3.73137C4.16857 3.43131 4 3.02435 4 2.6C4 2.17565 4.16857 1.76869 4.46863 1.46863C4.76869 1.16857 5.17565 1 5.6 1C6.02435 1 6.43131 1.16857 6.73137 1.46863C7.03143 1.76869 7.2 2.17565 7.2 2.6Z" stroke="#8491A5" stroke-width="1.5" stroke-linecap="round" stroke-linejoin="round"/>
</svg>
