<svg width="15" height="20" viewBox="0 0 15 20" fill="none" xmlns="http://www.w3.org/2000/svg">
<path d="M15 10C15 9.75136 14.9012 9.5129 14.7254 9.33709C14.5496 9.16127 14.3111 9.0625 14.0625 9.0625H6.94687L9.10313 6.91563C9.19054 6.82821 9.25987 6.72444 9.30718 6.61023C9.35449 6.49603 9.37884 6.37362 9.37884 6.25C9.37884 6.12638 9.35449 6.00397 9.30718 5.88977C9.25987 5.77556 9.19054 5.67179 9.10313 5.58437C9.01571 5.49696 8.91194 5.42763 8.79773 5.38032C8.68353 5.33301 8.56112 5.30866 8.4375 5.30866C8.31388 5.30866 8.19147 5.33301 8.07727 5.38032C7.96306 5.42763 7.85929 5.49696 7.77187 5.58437L4.02187 9.33437C3.93652 9.42353 3.86962 9.52867 3.825 9.64375C3.73123 9.87199 3.73123 10.128 3.825 10.3563C3.86962 10.4713 3.93652 10.5765 4.02187 10.6656L7.77187 14.4156C7.85903 14.5035 7.96272 14.5732 8.07696 14.6208C8.1912 14.6684 8.31374 14.6929 8.4375 14.6929C8.56126 14.6929 8.6838 14.6684 8.79804 14.6208C8.91228 14.5732 9.01597 14.5035 9.10313 14.4156C9.191 14.3285 9.26074 14.2248 9.30834 14.1105C9.35593 13.9963 9.38044 13.8738 9.38044 13.75C9.38044 13.6262 9.35593 13.5037 9.30834 13.3895C9.26074 13.2752 9.191 13.1715 9.10313 13.0844L6.94687 10.9375H14.0625C14.3111 10.9375 14.5496 10.8387 14.7254 10.6629C14.9012 10.4871 15 10.2486 15 10ZM12.1875 0.625H2.8125C2.06658 0.625 1.35121 0.921316 0.823762 1.44876C0.296316 1.97621 0 2.69158 0 3.4375V16.5625C0 17.3084 0.296316 18.0238 0.823762 18.5512C1.35121 19.0787 2.06658 19.375 2.8125 19.375H12.1875C12.9334 19.375 13.6488 19.0787 14.1762 18.5512C14.7037 18.0238 15 17.3084 15 16.5625V13.75C15 13.5014 14.9012 13.2629 14.7254 13.0871C14.5496 12.9113 14.3111 12.8125 14.0625 12.8125C13.8139 12.8125 13.5754 12.9113 13.3996 13.0871C13.2238 13.2629 13.125 13.5014 13.125 13.75V16.5625C13.125 16.8111 13.0262 17.0496 12.8504 17.2254C12.6746 17.4012 12.4361 17.5 12.1875 17.5H2.8125C2.56386 17.5 2.3254 17.4012 2.14959 17.2254C1.97377 17.0496 1.875 16.8111 1.875 16.5625V3.4375C1.875 3.18886 1.97377 2.9504 2.14959 2.77459C2.3254 2.59877 2.56386 2.5 2.8125 2.5H12.1875C12.4361 2.5 12.6746 2.59877 12.8504 2.77459C13.0262 2.9504 13.125 3.18886 13.125 3.4375V6.25C13.125 6.49864 13.2238 6.7371 13.3996 6.91291C13.5754 7.08873 13.8139 7.1875 14.0625 7.1875C14.3111 7.1875 14.5496 7.08873 14.7254 6.91291C14.9012 6.7371 15 6.49864 15 6.25V3.4375C15 2.69158 14.7037 1.97621 14.1762 1.44876C13.6488 0.921316 12.9334 0.625 12.1875 0.625Z" fill="#8491A5"/>
</svg>
