<svg width="15" height="21" viewBox="0 0 15 21" fill="none" xmlns="http://www.w3.org/2000/svg">
<path d="M3.501 0.75C3.501 0.551088 3.58002 0.360322 3.72067 0.21967C3.86132 0.0790176 4.05209 0 4.251 0H10.7505C10.9494 0 11.1402 0.0790176 11.2808 0.21967C11.4215 0.360322 11.5005 0.551088 11.5005 0.75C11.5005 0.948912 11.4215 1.13968 11.2808 1.28033C11.1402 1.42098 10.9494 1.5 10.7505 1.5H10.5V3H12C12.7956 3 13.5587 3.31607 14.1213 3.87868C14.6839 4.44129 15 5.20435 15 6V16.5C15 17.2956 14.6839 18.0587 14.1213 18.6213C13.5587 19.1839 12.7956 19.5 12 19.5V20.25C12 20.4489 11.921 20.6397 11.7803 20.7803C11.6397 20.921 11.4489 21 11.25 21C11.0511 21 10.8603 20.921 10.7197 20.7803C10.579 20.6397 10.5 20.4489 10.5 20.25V19.5H4.5V20.25C4.5 20.4489 4.42098 20.6397 4.28033 20.7803C4.13968 20.921 3.94891 21 3.75 21C3.55109 21 3.36032 20.921 3.21967 20.7803C3.07902 20.6397 3 20.4489 3 20.25V19.5C2.20435 19.5 1.44129 19.1839 0.87868 18.6213C0.31607 18.0587 0 17.2956 0 16.5V6C0 5.20435 0.31607 4.44129 0.87868 3.87868C1.44129 3.31607 2.20435 3 3 3H4.5V1.5H4.251C4.05209 1.5 3.86132 1.42098 3.72067 1.28033C3.58002 1.13968 3.501 0.948912 3.501 0.75ZM6 1.5V3H9V1.5H6ZM3 4.5C2.60218 4.5 2.22064 4.65804 1.93934 4.93934C1.65804 5.22064 1.5 5.60217 1.5 6V16.5C1.5 16.8978 1.65804 17.2794 1.93934 17.5607C2.22064 17.842 2.60218 18 3 18H12C12.3978 18 12.7794 17.842 13.0607 17.5607C13.342 17.2794 13.5 16.8978 13.5 16.5V6C13.5 5.60217 13.342 5.22064 13.0607 4.93934C12.7794 4.65804 12.3978 4.5 12 4.5H3ZM3 8.25C3 8.05109 3.07902 7.86032 3.21967 7.71967C3.36032 7.57902 3.55109 7.5 3.75 7.5H11.25C11.4489 7.5 11.6397 7.57902 11.7803 7.71967C11.921 7.86032 12 8.05109 12 8.25C12 8.44891 11.921 8.63968 11.7803 8.78033C11.6397 8.92098 11.4489 9 11.25 9H3.75C3.55109 9 3.36032 8.92098 3.21967 8.78033C3.07902 8.63968 3 8.44891 3 8.25Z" fill="#8491A5"/>
</svg>
