<svg width="16" height="21" viewBox="0 0 16 21" fill="none" xmlns="http://www.w3.org/2000/svg">
<path d="M12 0H4C2.93952 0.00127029 1.92285 0.423106 1.17298 1.17298C0.423106 1.92285 0.00127029 2.93952 0 4V13.6C0.00297168 14.4598 0.283494 15.2958 0.799822 15.9833C1.31615 16.6709 2.04068 17.1734 2.8656 17.416L1.4152 20.8H3.156L4.5272 17.6H11.4728L12.844 20.8H14.5848L13.1344 17.416C13.9593 17.1734 14.6838 16.6709 15.2002 15.9833C15.7165 15.2958 15.997 14.4598 16 13.6V4C15.9987 2.93952 15.5769 1.92285 14.827 1.17298C14.0772 0.423106 13.0605 0.00127029 12 0ZM4 1.6H12C12.4947 1.60147 12.9769 1.75606 13.3803 2.04254C13.7836 2.32902 14.0884 2.73335 14.2528 3.2H1.7472C1.91156 2.73335 2.21636 2.32902 2.61972 2.04254C3.02309 1.75606 3.50525 1.60147 4 1.6ZM14.4 12.8H12V14.4H14.2528C14.0884 14.8666 13.7836 15.271 13.3803 15.5575C12.9769 15.8439 12.4947 15.9985 12 16H4C3.50525 15.9985 3.02309 15.8439 2.61972 15.5575C2.21636 15.271 1.91156 14.8666 1.7472 14.4H4V12.8H1.6V11.2H14.4V12.8ZM14.4 9.6H1.6V4.8H14.4V9.6Z" fill="#8491A5"/>
</svg>
