<svg width="17" height="17" viewBox="0 0 17 17" fill="none" xmlns="http://www.w3.org/2000/svg">
<path fill-rule="evenodd" clip-rule="evenodd" d="M7.7499 0.666504C3.83788 0.666504 0.666565 3.83782 0.666565 7.74984C0.666565 11.6618 3.83788 14.8332 7.7499 14.8332C9.40565 14.8332 10.9287 14.2651 12.1348 13.3132L15.1784 16.3568C15.5038 16.6822 16.0315 16.6822 16.3569 16.3568C16.6823 16.0313 16.6823 15.5037 16.3569 15.1783L13.3133 12.1347C14.2651 10.9286 14.8332 9.4055 14.8332 7.74984C14.8332 3.83782 11.6619 0.666504 7.7499 0.666504ZM2.33323 7.74984C2.33323 4.7583 4.75836 2.33317 7.7499 2.33317C10.7415 2.33317 13.1666 4.7583 13.1666 7.74984C13.1666 10.7414 10.7415 13.1665 7.7499 13.1665C4.75836 13.1665 2.33323 10.7414 2.33323 7.74984Z" fill="#B5BDC9"/>
</svg>
